<svg xmlns="http://www.w3.org/2000/svg" xmlns:xlink="http://www.w3.org/1999/xlink" width="500" zoomAndPan="magnify" viewBox="0 0 375 374.999991" height="500" preserveAspectRatio="xMidYMid meet" version="1.0"><rect x="-37.5" width="450" fill="#ffffff" y="-37.499999" height="449.999989" fill-opacity="1"/><rect x="-37.5" width="450" fill="#ffffff" y="-37.499999" height="449.999989" fill-opacity="1"/><path stroke-linecap="round" transform="matrix(9.374999, 0, 0, 9.374999, 37.500002, 37.499998)" fill="none" stroke-linejoin="round" d="M 21.500001 16.210001 L 21.500001 28.500002 L 11.000001 28.500002 C 11.162501 28.450419 11.315834 28.380419 11.460001 28.290002 C 11.548334 28.229585 11.631667 28.162919 11.710001 28.090002 L 11.810001 28.010002 C 11.992917 27.830835 12.136251 27.624169 12.240001 27.390002 C 12.287501 27.254585 12.325417 27.116669 12.354167 26.976252 C 12.382917 26.835835 12.402084 26.694169 12.411251 26.550835 C 12.420834 26.407919 12.420417 26.264585 12.410417 26.121669 C 12.400001 25.978752 12.380417 25.837085 12.350834 25.696669 C 12.321667 25.556252 12.282917 25.418752 12.234584 25.283335 C 12.186667 25.148335 12.129584 25.017085 12.063334 24.890002 C 11.997501 24.762502 11.923334 24.640419 11.840417 24.523335 C 11.757917 24.405835 11.667917 24.295002 11.570001 24.190002 L 11.500001 24.000002 L 11.500001 16.000001 C 11.505834 15.797501 11.525834 15.596668 11.559584 15.397085 C 11.593334 15.197501 11.641251 15.001668 11.702501 14.808751 C 11.763751 14.615835 11.838334 14.427918 11.925834 14.245835 C 12.013751 14.063335 12.113334 13.887918 12.225834 13.719168 C 12.337917 13.550834 12.461251 13.390834 12.595834 13.239584 C 12.730417 13.088334 12.874584 12.947501 13.028751 12.816251 C 13.183334 12.685418 13.345834 12.565834 13.516667 12.457501 C 13.687917 12.349168 13.865417 12.253334 14.050001 12.170001 C 14.103751 11.712501 14.092501 11.257084 14.015834 10.802918 C 13.939584 10.348751 13.800834 9.914584 13.600001 9.500001 L 19.390001 9.500001 C 19.225418 9.841251 19.101668 10.197084 19.018751 10.566668 C 18.935834 10.936668 18.896251 11.310834 18.900001 11.690001 L 19.370001 12.430001 C 19.526251 12.521251 19.675834 12.622084 19.819584 12.732084 C 19.962918 12.842084 20.098751 12.961251 20.227084 13.088334 C 20.355418 13.215834 20.475418 13.350834 20.586668 13.493334 C 20.697918 13.636251 20.799584 13.785001 20.892084 13.940835 C 20.984168 14.096251 21.066251 14.257085 21.138335 14.422918 C 21.210418 14.588751 21.271668 14.758751 21.322085 14.932085 C 21.372501 15.105835 21.411668 15.282085 21.440001 15.460835 C 21.467918 15.639585 21.484585 15.819168 21.490001 16.000001 Z M 21.500001 16.210001 " stroke="#000000" stroke-width="1" stroke-opacity="1" stroke-miterlimit="4"/><path stroke-linecap="round" transform="matrix(9.374999, 0, 0, 9.374999, 37.500002, 37.499998)" fill="none" stroke-linejoin="round" d="M 12.500001 7.500001 L 20.500001 7.500001 L 20.500001 9.500001 L 12.500001 9.500001 Z M 12.500001 7.500001 " stroke="#000000" stroke-width="1" stroke-opacity="1" stroke-miterlimit="4"/><path stroke-linecap="round" transform="matrix(9.374999, 0, 0, 9.374999, 37.500002, 37.499998)" fill="none" stroke-linejoin="round" d="M 14.500001 3.5 L 18.500001 3.5 L 18.500001 7.500001 L 14.500001 7.500001 Z M 14.500001 3.5 " stroke="#000000" stroke-width="1" stroke-opacity="1" stroke-miterlimit="4"/><path stroke-linecap="round" transform="matrix(9.374999, 0, 0, 9.374999, 37.500002, 37.499998)" fill="none" stroke-linejoin="round" d="M 12.250001 27.390002 C 12.146251 27.624169 12.002917 27.830835 11.820001 28.010002 L 11.720001 28.090002 C 11.641667 28.162919 11.558334 28.229585 11.470001 28.290002 C 11.325834 28.380419 11.172501 28.450419 11.010001 28.500002 C 10.859584 28.538752 10.7075 28.567502 10.553334 28.585835 C 10.39875 28.604169 10.244167 28.612085 10.08875 28.609585 C 9.93375 28.607085 9.779167 28.594169 9.625417 28.570835 C 9.472084 28.547502 9.320834 28.513752 9.171667 28.470002 C 9.022917 28.426252 8.8775 28.372502 8.735834 28.309169 C 8.59375 28.245419 8.457084 28.172919 8.325 28.090835 C 8.193334 28.009169 8.0675 27.918335 7.9475 27.819585 C 7.827917 27.720835 7.715417 27.614169 7.61 27.500002 C 6.3 26.200002 6.06 24.340002 7.07 23.340002 C 7.183334 23.247918 7.30375 23.165418 7.43 23.092085 C 7.556667 23.018752 7.688334 22.956252 7.824584 22.903752 C 7.96125 22.851252 8.100834 22.810002 8.24375 22.779585 C 8.386667 22.749168 8.53125 22.730002 8.6775 22.722502 C 8.823334 22.715002 8.969167 22.718752 9.114167 22.734168 C 9.259584 22.749585 9.402917 22.776252 9.544167 22.814168 C 9.685417 22.852085 9.8225 22.901252 9.95625 22.960835 C 10.089584 23.020418 10.2175 23.090002 10.34 23.170002 C 10.687084 23.357918 11.000417 23.591252 11.280001 23.870002 L 11.450001 24.050002 C 11.498751 24.098752 11.542084 24.152085 11.580001 24.210002 C 11.676667 24.314585 11.766251 24.425002 11.848334 24.541252 C 11.930001 24.657919 12.003751 24.779585 12.069167 24.905835 C 12.134584 25.032502 12.191251 25.162919 12.239167 25.297085 C 12.287084 25.431252 12.325834 25.567919 12.355001 25.707085 C 12.384584 25.846669 12.404167 25.987502 12.414584 26.129585 C 12.425001 26.271669 12.425834 26.413752 12.416667 26.555835 C 12.407917 26.697919 12.389584 26.838752 12.361667 26.978335 C 12.333751 27.118335 12.296667 27.255419 12.250001 27.390002 Z M 12.250001 27.390002 " stroke="#000000" stroke-width="1" stroke-opacity="1" stroke-miterlimit="4"/><path stroke-linecap="round" transform="matrix(9.374999, 0, 0, 9.374999, 37.500002, 37.499998)" fill="none" stroke-linejoin="round" d="M 25.250001 27.320002 C 25.137918 27.450835 25.016251 27.571669 24.884168 27.682085 C 24.752501 27.792502 24.612501 27.891669 24.464168 27.979169 C 24.315835 28.066669 24.161251 28.141252 24.000835 28.202919 C 23.840001 28.265002 23.675418 28.312919 23.507085 28.347919 C 23.338335 28.382502 23.167918 28.402919 22.996251 28.409169 C 22.824168 28.415835 22.652918 28.407919 22.482085 28.386252 C 22.311251 28.364169 22.143751 28.328335 21.978751 28.278752 C 21.814168 28.229169 21.654585 28.166252 21.500001 28.090002 L 21.500001 23.600002 C 22.720001 22.180002 24.500001 21.820002 25.630001 22.600002 C 25.740001 22.690002 25.840001 22.790002 25.940001 22.890002 C 26.900002 24.000002 26.600002 26.000002 25.250001 27.320002 Z M 25.250001 27.320002 " stroke="#000000" stroke-width="1" stroke-opacity="1" stroke-miterlimit="4"/><path stroke-linecap="round" transform="matrix(9.374999, 0, 0, 9.374999, 37.500002, 37.499998)" fill="none" stroke-linejoin="round" d="M 25.630001 22.640002 C 25.552501 22.595418 25.473751 22.554168 25.392501 22.516668 C 25.311668 22.478752 25.229585 22.444585 25.145418 22.414168 C 25.061668 22.383752 24.976668 22.357085 24.890418 22.333752 C 24.804168 22.310835 24.717085 22.291668 24.629168 22.276252 C 24.541251 22.260835 24.452918 22.249168 24.363751 22.241252 C 24.275001 22.233752 24.185835 22.230002 24.096668 22.230002 C 24.007501 22.230002 23.918335 22.234168 23.829168 22.242085 C 23.740418 22.250002 23.652085 22.261668 23.564168 22.277085 C 23.476251 22.292918 23.389168 22.312502 23.302918 22.335418 C 23.216668 22.358752 23.131668 22.385835 23.047918 22.416252 C 22.964168 22.447085 22.882085 22.481252 22.801251 22.519168 C 22.720418 22.557085 22.641251 22.598335 22.564168 22.643335 C 22.486668 22.688335 22.411668 22.736252 22.338751 22.787502 C 22.265835 22.839168 22.195001 22.893335 22.127085 22.950835 C 22.058751 23.008335 21.992918 23.068752 21.930001 23.132085 C 21.867085 23.195418 21.807085 23.261252 21.750001 23.330002 C 21.661668 23.415002 21.578335 23.505002 21.500001 23.600002 L 21.500001 18.540001 L 21.800001 18.230001 C 24.130001 15.880001 28.340002 15.760001 28.580002 16.070001 C 28.820002 16.380001 27.870002 20.290002 25.630001 22.640002 Z M 25.630001 22.640002 " stroke="#000000" stroke-width="1" stroke-opacity="1" stroke-miterlimit="4"/><path stroke-linecap="round" transform="matrix(9.374999, 0, 0, 9.374999, 37.500002, 37.499998)" fill="none" stroke-linejoin="round" d="M 25.050001 19.000002 C 23.808751 20.079585 22.702085 21.282918 21.730001 22.610002 " stroke="#000000" stroke-width="1" stroke-opacity="1" stroke-miterlimit="4"/></svg>